<?xml version="1.0" encoding="UTF-8"?>
<svg id="Ebene_1" data-name="Ebene 1" xmlns="http://www.w3.org/2000/svg" viewBox="0 0 1920 1080">
  <defs>
    <style>
      .cls-1 {
        fill: #bee1fd;
      }
    </style>
  </defs>
  <path class="cls-1" d="M242.46,403.91v250.39h-43.87v-250.39h43.87Z"/>
  <path class="cls-1" d="M351.86,403.91v39.71h1.03c18.23-30.34,47.13-45.53,86.7-45.53,17.55,0,32.17,2.26,43.87,6.78,11.69,4.53,21.16,10.82,28.39,18.89,7.23,8.08,12.3,17.68,15.22,28.82s4.39,23.49,4.39,37.05v164.66h-43.87v-169.51c0-15.5-4.82-27.77-14.45-36.81-9.64-9.03-22.88-13.56-39.74-13.56-13.42,0-25.03,1.93-34.84,5.81s-17.98,9.37-24.51,16.47c-6.54,7.11-11.44,15.42-14.71,24.94-3.27,9.53-4.9,19.94-4.9,31.24v141.42h-43.87v-250.39h41.29Z"/>
  <path class="cls-1" d="M670.8,654.3l-99.09-250.39h49.03l74.83,208.74h1.03l72.77-208.74h45.93l-97.54,250.39h-46.96Z"/>
  <path class="cls-1" d="M884.11,419.41c19.96-14.21,45.08-21.31,75.35-21.31,21.34,0,39.83,3.23,55.48,9.69,15.66,6.46,28.82,15.5,39.48,27.12,10.67,11.63,18.67,25.5,24,41.65,5.34,16.14,8.35,33.74,9.03,52.79,0,19.05-3.1,36.48-9.29,52.3-6.19,15.82-14.88,29.55-26.06,41.17-11.18,11.63-24.43,20.66-39.74,27.12-15.3,6.46-32.08,9.69-50.32,9.69-23.74,0-43.43-4.6-59.09-13.8-15.65-9.2-28.21-20.91-37.67-35.11-9.46-14.21-16-29.71-19.61-46.49-3.61-16.79-5.07-32.77-4.39-47.95h199.73c.35-10.98-1.03-21.39-4.13-31.24-3.1-9.85-8.08-18.57-14.97-26.15-6.88-7.59-15.65-13.65-26.32-18.16-10.66-4.52-23.22-6.78-37.67-6.78-18.58,0-33.8,4.03-45.67,12.1s-19.69,20.34-23.48,36.81h-43.35c5.85-28.09,18.76-49.24,38.71-63.44h-.02ZM894.69,580.2c3.96,8.72,9.29,16.22,16,22.52,6.71,6.3,14.63,11.3,23.74,15.01,9.12,3.71,19.18,5.57,30.19,5.57s21.6-1.86,30.71-5.57c9.12-3.71,16.95-8.8,23.48-15.26,6.54-6.46,11.7-13.97,15.48-22.52,3.79-8.56,6.02-17.68,6.71-27.36h-153.28c.69,9.68,3.02,18.89,6.97,27.6h0Z"/>
  <path class="cls-1" d="M1172.43,403.91v52.79h1.03c10.66-20.34,23.74-35.35,39.22-45.04s35.09-14.21,58.83-13.56v43.59c-17.55,0-32.51,2.26-44.9,6.78-12.39,4.53-22.37,11.14-29.93,19.86-7.57,8.72-13.08,19.3-16.51,31.72-3.44,12.43-5.16,26.72-5.16,42.86v111.39h-43.87v-250.39h41.29Z"/>
  <path class="cls-1" d="M1323.81,419.41c19.96-14.21,45.08-21.31,75.35-21.31,21.34,0,39.83,3.23,55.48,9.69,15.66,6.46,28.82,15.5,39.48,27.12,10.67,11.63,18.67,25.5,24,41.65,5.34,16.14,8.35,33.74,9.03,52.79,0,19.05-3.1,36.48-9.29,52.3-6.19,15.82-14.88,29.55-26.06,41.17-11.18,11.63-24.43,20.66-39.74,27.12-15.3,6.46-32.08,9.69-50.32,9.69-23.74,0-43.43-4.6-59.09-13.8-15.65-9.2-28.21-20.91-37.67-35.11-9.46-14.21-16-29.71-19.61-46.49-3.61-16.79-5.07-32.77-4.39-47.95h199.73c.35-10.98-1.03-21.39-4.13-31.24-3.1-9.85-8.08-18.57-14.97-26.15-6.88-7.59-15.65-13.65-26.32-18.16-10.66-4.52-23.22-6.78-37.67-6.78-18.58,0-33.8,4.03-45.67,12.1s-19.69,20.34-23.48,36.81h-43.35c5.85-28.09,18.76-49.24,38.71-63.44h-.02ZM1334.39,580.2c3.96,8.72,9.29,16.22,16,22.52,6.71,6.3,14.63,11.3,23.74,15.01,9.12,3.71,19.18,5.57,30.19,5.57s21.6-1.86,30.71-5.57c9.12-3.71,16.95-8.8,23.48-15.26,6.54-6.46,11.7-13.97,15.48-22.52,3.79-8.56,6.02-17.68,6.71-27.36h-153.28c.69,9.68,3.02,18.89,6.97,27.6h0Z"/>
  <path class="cls-1" d="M1551.23,403.91h56.25l64,87.66,66.57-87.66h52.64l-91.86,115.26,103.22,135.12h-56.25l-74.32-103.64-74.32,103.64h-53.16l100.12-131.73-92.9-118.66h.01Z"/>
</svg>