<?xml version="1.0" encoding="UTF-8"?>
<svg id="Ebene_1" data-name="Ebene 1" xmlns="http://www.w3.org/2000/svg" viewBox="0 0 1536 1024">
  <defs>
    <style>
      .cls-1 {
        fill: #2d2659;
      }
    </style>
  </defs>
  <path class="cls-1" d="M1300.38,643.01c-31.99,5.19-57.93,26.32-90.73,11.92-53.02-23.26-5.47-81.1-2.31-118.65,8.22-97.75-75.46-165.77-169.62-155.93-37.07,3.87-76.34,38.1-110.9.85-29.78-32.11-3.1-57.25,8.57-87.21,17.37-44.58,12.49-93.23-14.49-132.69-71.81-105.02-236.6-66.79-247.24,62.56-3.84,46.64,21.37,107.77-15.95,143.72-38.55,37.13-88.91,8.31-135.73,12.53-64.65,5.83-117.59,67.94-122.03,131.16-2.39,34.08,15.44,72.32,1.1,103.74-22.03,48.25-85.43,22.41-125.53,25.01-63.37,4.11-128.27,59.46-133.43,124.32-15.69,197.11,281.43,208.5,279.37,18.33-.41-37.67-25.11-82.58,6.66-114.38,24.99-25.02,71.67-11.61,102.99-9.96,29.04,1.52,68.89-2.85,95.13,9.8,49.58,23.9,27.78,78.02,31.74,121.09,15.29,166.52,278.3,172.66,289.09,4.57,3-46.71-39.29-103.77,18.46-132.1,33.64-16.5,124.21-15.42,163.15-12.43,41.4,3.18,70.08,25.59,67.27,69.51-.79,12.36-5.8,26.4-6.76,38.84-16.18,210.21,277.53,210.29,289.61,43.26,7.13-98.6-82.36-173.45-178.4-157.87ZM879.65,609.54c-28.04-2.18-51.2-21.36-79.27-22.71-32.96-1.58-62.63,16.79-93.95,24.07-18.93,4.4-48.84,8.43-59.71-12.75-8.99-17.51,1.64-39.73,9.07-55.78,7.48-16.17,19.25-32.59,22.73-50.27,3.15-16-1.45-38.64.2-57,.66-7.4,1.66-19.6,6.18-28.14,1.52-5.42,4.68-10.19,10.39-13.5,9.54-5.53,21.52-4.44,31.98-3.08,9.68,1.26,19.34,3.71,29.1,4.23,12.97.69,26.51-5.49,39.18-9.55,26.63-8.55,60.08-9.95,84.86,5.28,34.93,21.47,28.25,65.57,21.4,102.19-1.05,11.4-.48,22.07,6.61,33.13,7.07,11.01,15.87,21.06,17.97,34.42,4.45,28.31-19.13,51.61-46.74,49.46Z"/>
</svg>